<svg width="35" height="35" viewBox="0 0 35 35" fill="none" xmlns="http://www.w3.org/2000/svg">
<path d="M15.5923 1.73851C16.1796 -0.127509 18.8204 -0.12751 19.4077 1.73851L22.111 10.3269C22.3732 11.1598 23.1455 11.7264 24.0188 11.7264H32.8986C34.8207 11.7264 35.6363 14.1732 34.0986 15.3264L26.8065 20.7953C26.1277 21.3044 25.844 22.1864 26.0988 22.9958L28.8582 31.7622C29.4417 33.616 27.3053 35.1288 25.7504 33.9627L18.7 28.675C17.9889 28.1417 17.0111 28.1417 16.3 28.675L9.24955 33.9627C7.69471 35.1288 5.55832 33.616 6.14185 31.7622L8.9012 22.9958C9.15597 22.1864 8.87228 21.3044 8.19346 20.7953L0.901377 15.3264C-0.636269 14.1732 0.179323 11.7264 2.10136 11.7264H10.9812C11.8545 11.7264 12.6268 11.1598 12.889 10.3269L15.5923 1.73851Z" fill="#FFEA80"/>
</svg>
